<svg width="100" height="100" viewBox="0 0 100 100" fill="none" xmlns="http://www.w3.org/2000/svg">
<rect width="100" height="100" rx="20" fill="white"/>
<path d="M75.9269 57.0711L74.7484 58.2497L41.7501 25.2514L42.9287 24.0729C43.5792 23.4223 43.5792 22.3663 42.9287 21.7158C39.6808 18.4678 34.3916 18.4678 31.1437 21.7158C28.5438 19.116 24.3153 19.116 21.7155 21.7158C19.1157 24.3156 19.1157 28.5441 21.7155 31.144C18.4675 34.3919 18.4675 39.681 21.7155 42.929C22.366 43.5795 23.422 43.5795 24.0726 42.929L25.2511 41.7504L58.2495 74.7488L57.0709 75.9273C56.4204 76.5779 56.4204 77.6339 57.0709 78.2844C60.3189 81.5324 65.608 81.5324 68.856 78.2844C71.4557 80.8842 75.6842 80.8842 78.284 78.2843C80.8839 75.6845 80.8839 71.456 78.284 68.8562C81.532 65.6082 81.532 60.3191 78.284 57.0711C77.6335 56.4206 76.5775 56.4206 75.9269 57.0711ZM24.0725 24.0728C25.3712 22.774 27.4878 22.7741 28.7864 24.0728L24.0724 28.7869C22.7738 27.4881 22.7737 25.3715 24.0725 24.0728ZM24.0702 33.5033L33.4982 24.0752C35.0349 22.5385 37.3307 22.2131 39.1904 23.097L23.0943 39.193C22.2105 37.3333 22.5357 35.0377 24.0702 33.5033ZM49.0121 60.1706C49.8607 59.1665 50.6597 58.1317 51.3809 57.0522C51.4824 56.9037 51.5648 56.7457 51.6638 56.595C52.3048 55.6051 52.8848 54.5821 53.4197 53.538C53.5518 53.2787 53.6909 53.0218 53.8157 52.7602C54.3719 51.6005 54.8645 50.4149 55.2794 49.2035C55.3595 48.9724 55.4232 48.7391 55.4963 48.5057C55.8474 47.4097 56.1421 46.3043 56.3731 45.1823C56.406 45.0268 56.465 44.8783 56.4933 44.7227L60.6181 48.8475C60.6087 48.9841 60.5875 49.128 60.5661 49.2717C60.3988 50.5988 60.1631 51.9139 59.8143 53.2056C59.7931 53.2834 59.7648 53.3587 59.7436 53.4365C59.3877 54.7116 58.9375 55.9633 58.4142 57.1937C58.3506 57.3468 58.294 57.5024 58.2256 57.6556C57.6882 58.8623 57.0541 60.0338 56.3589 61.1723C56.2293 61.3822 56.1043 61.592 55.9723 61.7993C55.2605 62.9024 54.4803 63.9702 53.6271 64.9884C53.5635 65.0662 53.4951 65.1392 53.4268 65.217L48.7387 60.5289C48.8377 60.4157 48.9156 60.2861 49.0121 60.1706ZM46.3557 58.1459L41.6747 53.4649C45.6345 48.8923 48.3215 43.424 49.4364 37.6563L53.5518 41.7717C53.5376 41.9131 53.5164 42.0569 53.4952 42.2006C53.3278 43.5276 53.0921 44.8427 52.7433 46.1344C52.7221 46.2122 52.6938 46.2875 52.6726 46.3653C52.3168 47.6404 51.8665 48.8921 51.3433 50.1225C51.2796 50.2756 51.2231 50.4312 51.1547 50.5844C50.6173 51.7911 49.9832 52.9626 49.2879 54.1012C49.1583 54.311 49.0333 54.5208 48.9013 54.7282C48.1896 55.8313 47.4093 56.899 46.5561 57.9172C46.4925 57.995 46.4242 58.0681 46.3557 58.1459ZM55.8099 67.5952C55.9089 67.4821 55.9866 67.3523 56.0833 67.2369C56.9318 66.2328 57.7309 65.198 58.4521 64.1185C58.5535 63.9701 58.636 63.8121 58.735 63.6614C59.376 62.6714 59.9559 61.6484 60.4909 60.6043C60.6229 60.345 60.762 60.0882 60.8869 59.8265C61.4431 58.6669 61.9357 57.4812 62.3506 56.2698C62.4307 56.0387 62.4943 55.8054 62.5675 55.5721C62.9186 54.476 63.2133 53.3706 63.4443 52.2487C63.4772 52.0931 63.5362 51.9446 63.5645 51.789L67.7129 55.9374C67.0553 61.8747 64.5286 67.607 60.5169 72.3022L55.8099 67.5952ZM70.6236 58.8389L72.3914 60.6067L69.3155 63.6826C69.8789 62.101 70.3055 60.4817 70.6236 58.8389ZM46.3557 35.6741C46.2331 36.5226 46.0729 37.3665 45.8726 38.2032C45.7123 38.8773 45.5237 39.5467 45.3164 40.2114C45.0925 40.9256 44.8426 41.6327 44.5669 42.3327C44.3075 42.988 44.0318 43.6361 43.7278 44.2702C43.3625 45.0362 42.9594 45.7881 42.5282 46.5258C42.2217 47.0491 41.9059 47.5677 41.5689 48.0744C41.0174 48.9042 40.4234 49.7103 39.7918 50.488C39.6315 50.6907 39.4524 50.8744 39.285 51.0701L34.6252 46.4103C38.5873 41.84 41.2672 36.36 42.3846 30.5994L46.4834 34.6983C46.4454 35.0235 46.403 35.3488 46.3557 35.6741ZM32.242 44.0273L27.6081 39.3935L39.3933 27.6083L39.4404 27.6555C38.7803 33.5999 36.2584 39.3275 32.242 44.0273ZM75.927 75.9273C74.6283 77.2261 72.5117 77.226 71.2131 75.9273L75.9272 71.2133C77.2257 72.512 77.2258 74.6286 75.927 75.9273ZM75.927 66.4992L66.499 75.9272C64.9622 77.464 62.6665 77.7894 60.8068 76.9055L76.9053 60.807C77.7891 62.6668 77.4638 64.9624 75.927 66.4992Z" fill="black"/>
</svg>
